<svg width="24" height="26" viewBox="0 0 24 26" fill="none" xmlns="http://www.w3.org/2000/svg">
<g clip-path="url(#clip0_1698_6068)">
<path d="M24 6.93426C24.0024 7.84525 23.8262 8.7477 23.4815 9.58937C23.1368 10.431 22.6304 11.1952 21.9917 11.8376L9.64013 24.4762C9.16221 24.9602 8.59445 25.344 7.96944 25.6055C7.34443 25.867 6.67449 26.0011 5.99809 26C5.32302 26.0011 4.65436 25.8674 4.03054 25.6065C3.40671 25.3456 2.83999 24.9627 2.36292 24.4797C1.39998 23.5036 0.859195 22.1811 0.859195 20.8023C0.859195 19.4236 1.39998 18.1011 2.36292 17.125L11.2859 8.15295C12.6256 6.80684 14.7547 6.76263 16.0345 8.05501C16.3443 8.36939 16.5865 8.74507 16.7461 9.15851C16.9057 9.57195 16.9792 10.0142 16.9619 10.4577C16.9337 11.36 16.5647 12.2171 15.9308 12.8526L7.46296 21.4156C7.30224 21.5781 7.08425 21.6694 6.85696 21.6694C6.62966 21.6694 6.41167 21.5781 6.25095 21.4156C6.09023 21.2531 5.99994 21.0326 5.99994 20.8028C5.99994 20.5729 6.09023 20.3525 6.25095 20.19L14.7187 11.627C15.047 11.295 15.2356 10.8616 15.2485 10.4066C15.2578 10.1994 15.2248 9.99243 15.1515 9.7987C15.0782 9.60496 14.9662 9.4286 14.8225 9.28063C14.2096 8.66349 13.1656 8.70769 12.4953 9.38205L3.57321 18.3524C2.93199 19.0033 2.5721 19.8848 2.57242 20.8036C2.57274 21.7224 2.93324 22.6035 3.57493 23.254C4.21859 23.903 5.09044 24.2674 5.99938 24.2674C6.90831 24.2674 7.78017 23.903 8.42383 23.254L20.7754 10.6155C21.7508 9.62908 22.2857 8.32371 22.2857 6.93426C22.2857 5.5448 21.7508 4.23943 20.7797 3.25737C19.8076 2.27444 18.5168 1.73356 17.1428 1.73356C15.7688 1.73356 14.4779 2.27444 13.5059 3.25737L1.46119 15.3507C1.38127 15.4309 1.28652 15.4944 1.18233 15.5375C1.07815 15.5807 0.966583 15.6027 0.853997 15.6023C0.626621 15.6014 0.408908 15.5092 0.248754 15.3459C0.0885993 15.1827 -0.000877618 14.9619 6.49001e-06 14.7319C0.000890598 14.502 0.0920634 14.2818 0.253468 14.1199L12.2964 2.02914C13.589 0.721163 15.311 0 17.1428 0C18.9745 0 20.6965 0.721163 21.9917 2.03174C22.6304 2.67396 23.1369 3.43797 23.4816 4.2795C23.8263 5.12104 24.0025 6.02338 24 6.93426Z" fill="#1068D7"/>
</g>
<defs>
<clipPath id="clip0_1698_6068">
<rect width="24" height="26" fill="white"/>
</clipPath>
</defs>
</svg>
