<svg width="17" height="17" viewBox="0 0 17 17" fill="none" xmlns="http://www.w3.org/2000/svg">
<path d="M10 0.5H6V4.5H10V0.5Z" fill="white"/>
<path d="M4 12.5H0V16.5H4V12.5Z" fill="white"/>
<path d="M4 6.5H0V10.5H4V6.5Z" fill="white"/>
<path d="M4 0.5H0V4.5H4V0.5Z" fill="white"/>
<path d="M10 8.92V6.5H6V10.5H8.42L10 8.92Z" fill="white"/>
<path d="M16.88 7.79L15.71 6.62C15.55 6.46 15.29 6.46 15.13 6.62L14.25 7.5L16 9.25L16.88 8.37C17.04 8.21 17.04 7.95 16.88 7.79Z" fill="white"/>
<path d="M7 14.7501V16.5001H8.75L15.42 9.83008L13.67 8.08008L7 14.7501Z" fill="white"/>
<path d="M16 0.5H12V4.5H16V0.5Z" fill="white"/>
</svg>
