<svg width="30" height="30" viewBox="0 0 30 30" fill="none" xmlns="http://www.w3.org/2000/svg">
<path d="M24.593 24.5924L5.40586 5.40591L5.40176 5.40123C5.29788 5.2982 5.17473 5.21663 5.03933 5.1612C4.90393 5.10576 4.75894 5.07754 4.61263 5.07813C4.46632 5.07873 4.32157 5.10814 4.18663 5.16469C4.05168 5.22123 3.9292 5.30379 3.82617 5.40767C3.72314 5.51155 3.64158 5.6347 3.58614 5.7701C3.5307 5.9055 3.50248 6.05049 3.50308 6.1968C3.50429 6.49228 3.62283 6.77518 3.83262 6.98326L5.5125 8.66314C3.47526 10.0584 1.7217 11.8281 0.345116 13.878C0.120321 14.2099 0.000167847 14.6015 0.000167847 15.0024C0.000167847 15.4033 0.120321 15.7949 0.345116 16.1268C3.85898 21.3276 9.42949 24.3745 15 24.3364C16.8044 24.3429 18.5967 24.0425 20.3004 23.4481L23.0197 26.1674C23.2292 26.3702 23.5099 26.4827 23.8015 26.4807C24.093 26.4787 24.3722 26.3624 24.5789 26.1568C24.7857 25.9512 24.9035 25.6727 24.9071 25.3812C24.9107 25.0897 24.7998 24.8084 24.5982 24.5977L24.593 24.5924ZM15 21.3124C13.9446 21.312 12.9061 21.0471 11.9795 20.5419C11.0529 20.0367 10.2676 19.3074 9.69549 18.4205C9.12338 17.5336 8.78265 16.5175 8.70446 15.465C8.62626 14.4126 8.81308 13.3572 9.24785 12.3956L11.0027 14.1504C10.8614 14.8165 10.8887 15.5074 11.0822 16.1602C11.2757 16.8131 11.6292 17.4072 12.1107 17.8887C12.5922 18.3702 13.1864 18.7238 13.8392 18.9173C14.4921 19.1108 15.1829 19.1381 15.849 18.9967L17.6039 20.7516C16.786 21.1225 15.8981 21.3137 15 21.3124ZM29.6549 13.8751C26.141 8.67134 20.5705 5.62447 15 5.66255C13.1956 5.65602 11.4033 5.95639 9.69961 6.55084L12.3949 9.24615C13.5645 8.71686 14.8676 8.55659 16.1306 8.78669C17.3936 9.0168 18.5564 9.62635 19.4642 10.5341C20.3719 11.4419 20.9815 12.6047 21.2116 13.8677C21.4417 15.1307 21.2814 16.4338 20.7521 17.6034L24.4869 21.3381C26.5245 19.9431 28.2783 18.1734 29.6549 16.1233C29.8795 15.7915 29.9996 15.3999 29.9996 14.9992C29.9996 14.5984 29.8795 14.2069 29.6549 13.8751Z" fill="#1068D7"/>
<path d="M15 10.9141C14.7147 10.9141 14.4301 10.9439 14.151 11.0031L18.9973 15.8488C19.1236 15.2535 19.1154 14.6374 18.9732 14.0456C18.831 13.4538 18.5584 12.9013 18.1753 12.4283C17.7922 11.9554 17.3083 11.574 16.7589 11.312C16.2096 11.05 15.6086 10.9141 15 10.9141Z" fill="#1068D7"/>
</svg>
